<?xml version="1.0" encoding="UTF-8"?>
<!-- Generator: Adobe Illustrator 28.3.0, SVG Export Plug-In . SVG Version: 6.00 Build 0)  -->
<svg version="1.1" id="Livello_1" xmlns="http://www.w3.org/2000/svg" xmlns:xlink="http://www.w3.org/1999/xlink" x="0px" y="0px" viewBox="0 0 300 300" style="enable-background:new 0 0 300 300;" xml:space="preserve">
<style type="text/css">
	.st0{display:none;fill:#FFFFFF;}
	.st1{fill:#4FC1E9;}
</style>
<path class="st0" d="M231.43,300H68.57C30.7,300,0,269.3,0,231.43V68.57C0,30.7,30.7,0,68.57,0h162.87C269.3,0,300,30.7,300,68.57  v162.87C300,269.3,269.3,300,231.43,300z"/>
<g>
	<path class="st1" d="M290.49,91.38c-6.34-6.34-13.98-9.52-22.91-9.52h-12.35H143.37l48.51,35.02h59.96   c11.68,0,13.12,1.44,13.12,13.11v39.93c0,11.68-1.44,13.11-13.12,13.11h-59.92l-48.64,35.09l124.29,0.02   c8.93,0,16.57-3.17,22.91-9.52c6.35-6.35,9.51-13.98,9.51-22.91v-12.37v-46.72v-12.35C300,105.36,296.84,97.72,290.49,91.38z"/>
	<polygon class="st1" points="162.35,114.77 162.35,185.17 211.13,149.97  "/>
	<polygon class="st1" points="146.8,196.38 146.8,103.6 116.66,81.85 116.66,130.72 35.74,130.72 35.74,81.85 0,81.85 0,218.13    35.74,218.13 35.74,164.47 116.66,164.47 116.66,218.13  "/>
</g>
</svg>