<?xml version="1.0" encoding="utf-8"?>
<!-- Generator: Adobe Illustrator 28.3.0, SVG Export Plug-In . SVG Version: 6.00 Build 0)  -->
<svg version="1.1" id="Livello_1" xmlns="http://www.w3.org/2000/svg" xmlns:xlink="http://www.w3.org/1999/xlink" x="0px" y="0px"
	 viewBox="0 0 260.02 74.45" style="enable-background:new 0 0 260.02 74.45;" xml:space="preserve">
<style type="text/css">
	.st0{fill:#4FC1E9;}
	.st1{fill:#1F262E;}
</style>
<g>
	<path class="st0" d="M116.28,60.89V13.85h7.27v11.61h20.59c2.24,0,4.15,0.8,5.74,2.41c1.59,1.61,2.38,3.53,2.38,5.77V52.7
		c0,2.24-0.79,4.16-2.38,5.77c-1.59,1.61-3.5,2.41-5.74,2.41H116.28z M125.81,53.62h16.98c1.02,0,1.64-0.11,1.86-0.34
		c0.22-0.22,0.34-0.84,0.34-1.86V34.92c0-1.02-0.11-1.64-0.34-1.86c-0.22-0.22-0.85-0.34-1.86-0.34h-16.98
		c-1.02,0-1.65,0.11-1.89,0.34c-0.24,0.22-0.37,0.85-0.37,1.86v16.49c0,1.02,0.12,1.64,0.37,1.86
		C124.16,53.5,124.79,53.62,125.81,53.62z"/>
	<path class="st0" d="M166.61,60.89c-2.24,0-4.16-0.8-5.77-2.41c-1.61-1.61-2.41-3.53-2.41-5.77V13.79h7.33v37.63
		c0,1.02,0.11,1.64,0.34,1.86c0.22,0.22,0.84,0.34,1.86,0.34h5.5v7.27H166.61z"/>
	<path class="st0" d="M186.65,60.89c-2.24,0-4.16-0.8-5.77-2.41c-1.61-1.61-2.41-3.53-2.41-5.77V33.64c0-2.24,0.8-4.16,2.41-5.77
		c1.61-1.61,3.53-2.41,5.77-2.41h19.61c2.28,0,4.22,0.8,5.8,2.41c1.59,1.61,2.38,3.53,2.38,5.77V52.7c0,2.24-0.79,4.16-2.38,5.77
		c-1.59,1.61-3.52,2.41-5.8,2.41H186.65z M187.93,53.62h17.04c1.02,0,1.64-0.11,1.86-0.34c0.22-0.22,0.34-0.84,0.34-1.86V34.92
		c0-1.02-0.11-1.64-0.34-1.86c-0.22-0.22-0.85-0.34-1.86-0.34h-17.04c-1.02,0-1.64,0.11-1.86,0.34c-0.22,0.22-0.34,0.85-0.34,1.86
		v16.49c0,1.02,0.11,1.64,0.34,1.86C186.29,53.5,186.91,53.62,187.93,53.62z"/>
	<path class="st0" d="M228.01,74.87l-7.66-7.33h26.58c1.02,0,1.64-0.11,1.86-0.34c0.22-0.22,0.34-0.85,0.34-1.86v-4.46h-20.53
		c-2.24,0-4.16-0.8-5.77-2.41c-1.61-1.61-2.41-3.53-2.41-5.77V33.64c0-2.24,0.8-4.16,2.41-5.77c1.61-1.61,3.53-2.41,5.77-2.41h19.67
		c2.28,0,4.2,0.8,5.77,2.41c1.57,1.61,2.35,3.53,2.35,5.77v33.05c0,2.28-0.78,4.22-2.35,5.8c-1.57,1.59-3.49,2.38-5.77,2.38H228.01z
		 M229.9,53.62h17.04c1.02,0,1.64-0.11,1.86-0.34c0.22-0.22,0.34-0.84,0.34-1.86V34.92c0-1.02-0.11-1.64-0.34-1.86
		c-0.22-0.22-0.85-0.34-1.86-0.34H229.9c-1.02,0-1.64,0.11-1.86,0.34c-0.22,0.22-0.34,0.85-0.34,1.86v16.49
		c0,1.02,0.11,1.64,0.34,1.86C228.26,53.5,228.88,53.62,229.9,53.62z"/>
	<g>
		<path class="st1" d="M104.81,16.89c-2.21-2.21-4.87-3.32-7.98-3.32h-4.3H53.56l16.9,12.2h20.89c4.07,0,4.57,0.5,4.57,4.57v13.91
			c0,4.07-0.5,4.57-4.57,4.57H70.47L53.53,61.05l43.3,0.01c3.11,0,5.77-1.1,7.98-3.32c2.21-2.21,3.31-4.87,3.31-7.98v-4.31V29.18
			v-4.3C108.12,21.76,107.02,19.1,104.81,16.89z"/>
		<polygon class="st0" points="60.17,25.04 60.17,49.57 77.16,37.3 		"/>
		<polygon class="st1" points="54.75,53.47 54.75,21.15 44.25,13.57 44.25,30.6 16.06,30.6 16.06,13.57 3.61,13.57 3.61,61.05 
			16.06,61.05 16.06,42.36 44.25,42.36 44.25,61.05 		"/>
	</g>
</g>
</svg>
